<svg xmlns="http://www.w3.org/2000/svg" version="1.1" xmlns:xlink="http://www.w3.org/1999/xlink" xmlns:svgjs="http://svgjs.dev/svgjs" viewBox="0 0 8.73980347258098 8.798778017837497"><g transform="matrix(1,0,0,1,2.616239640689078,2.7854202654187334)"><g><path d=" M -1.153059311156117 -0.536461751764804 L -1.1366071867175096 -0.5269576683552067 Q -1.1465527550352395 -0.495747322781385 -1.1466266724688998 -0.4536374125913478 Q -1.1467005899025604 -0.41152750240131053 -1.1260118261009475 -0.3533813498857652 L -1.026090342246015 -0.07854376682218833 L -1.0689476838590548 -0.17028387947670398 L -0.6286471565849788 -0.19078865165712 Q -0.6017284181732774 -0.1914063265897391 -0.5816023615051691 -0.19825773834149463 Q -0.5614763048370607 -0.20510915009325004 -0.5398117041509763 -0.2226204343726086 L -0.5224936784261267 -0.2126161360467167 Q -0.5417330030689225 -0.18331002086081893 -0.5636751951127114 -0.1463263730105394 Q -0.5856173871565002 -0.10934272516025978 -0.6031249092268112 -0.07903618014177283 Q -0.6136294224689977 -0.0608522531306806 -0.6282029193147143 -0.03462510708525879 Q -0.642776416160431 -0.008397961039836921 -0.6640544997374974 0.03243392795990657 L -0.6813725254623472 0.022429629634014625 Q -0.6625955164667536 -0.01407275293451643 -0.6665697518975532 -0.026184955572376212 Q -0.6705439873283527 -0.03829715821023599 -0.6993290568588859 -0.036447895621426585 L -0.9753470219885864 -0.028442714445496398 Q -1.0022657604002878 -0.027825039512877403 -1.017725989271317 -0.02405259690159789 Q -1.0331862181423461 -0.02028015429031843 -1.042585138009678 -0.01300620726497681 Q -1.0519840578770097 -0.005732260239635134 -1.061853827656555 0.009353747996435013 L -1.080037754667647 -0.0011507652457515283 Q -1.0588941996369272 -0.03975063675671542 -1.0615525146083409 -0.08112917420685689 Q -1.0642108295797543 -0.12250771165699836 -1.0843993784650727 -0.18151976545878623 L -1.116365689726908 -0.2681232004040093 Q -1.136323080788625 -0.3235371205144806 -1.1612134756355912 -0.34542246365463103 Q -1.1861038704825568 -0.3673078067947816 -1.2114442845026663 -0.359426600206356 Q -1.2367846985227757 -0.35154539361793014 -1.2576591964608022 -0.31740955708452534 L -1.2741113208994093 -0.32691364049412264 Q -1.2547374677102667 -0.35845177316880006 -1.2371143667281552 -0.3869592513416287 Q -1.2194912657460437 -0.4154667295144574 -1.1974818094290816 -0.4535663861091266 Q -1.1684693442839948 -0.5037886607111908 -1.153059311156117 -0.536461751764804 M -1.3261336721940473 -0.2368599067249042 L -1.3088156464691976 -0.2268556083990123 Q -1.3239566225043822 -0.19864655232295814 -1.3265818102626667 -0.18110778414404227 Q -1.3292069980209515 -0.1635690159651264 -1.316554800093181 -0.1504857484987585 Q -1.3039026021654105 -0.13740248103239072 -1.2718642545744385 -0.11889452912949061 L -0.842377216598166 0.12921206935262924 Q -0.8112047702934366 0.1472198063392347 -0.7928673651014516 0.15146121775820381 Q -0.7745299599094666 0.15570262917717287 -0.7613311135312981 0.14484949809506065 Q -0.7481322671531296 0.13399636701294848 -0.7303935872592175 0.10728795568577815 L -0.7130755615343679 0.1172922540116701 Q -0.728313166846807 0.139671158907628 -0.7492549290580067 0.1749230041854226 Q -0.7701966912692064 0.21017484946321718 -0.7912057177535794 0.24654270348540155 Q -0.81521603373572 0.28810596522504084 -0.8360422170351192 0.32515687734849374 Q -0.8568684003345183 0.36220778947194665 -0.8676419706693982 0.384855751460598 L -0.8849599963942479 0.374851453134706 Q -0.8706849216453059 0.3461421821423573 -0.8678768907020472 0.32928647206470996 Q -0.8650688597587886 0.31243076198706266 -0.877903900871533 0.29866443641942625 Q -0.8907389419842774 0.28489811085178984 -0.9219113882890069 0.2668903738651843 L -1.3513984262652794 0.01878377538306447 Q -1.3834367738562514 0.0002758234801644166 -1.4013412284051152 -0.003715480480657396 Q -1.4192456829539788 -0.007706784441479153 -1.433127587433416 0.003329189825606982 Q -1.447009491912853 0.014365164092693117 -1.4633820556042278 0.04070788904991557 L -1.4807000813290776 0.03070359072402362 Q -1.4673288071354702 0.009556273484256084 -1.4452037719067072 -0.02674431626475493 Q -1.4230787366779445 -0.06304490601376594 -1.399068420695804 -0.1046081677534052 Q -1.378059394211431 -0.14097602177558954 -1.3584164839295947 -0.17697818942782606 Q -1.3387735736477588 -0.21298035708006258 -1.3261336721940473 -0.2368599067249042 M -0.7574609213811871 -0.9941028605589247 Q -0.6821169976632758 -1.0686635281980328 -0.5953627463042607 -1.0940199844002867 Q -0.5086084949452455 -1.1193764406025406 -0.42070975543075206 -1.093107417176398 Q -0.3328110159162586 -1.0668383937502555 -0.25191972555307524 -0.9850973444336535 Q -0.17313864276458363 -0.9054886703166151 -0.14603845866666787 -0.81412905110846 Q -0.118938274568752 -0.7227694319003052 -0.1430970904202028 -0.6327383171862482 Q -0.1672559062716536 -0.5427072024721911 -0.24046745479000142 -0.4702567424077747 Q -0.31581137850791285 -0.39569607476866653 -0.402565629866928 -0.37033961856641273 Q -0.48931988122594317 -0.3449831623641589 -0.5775703220028853 -0.37160758165689534 Q -0.6658207627798274 -0.39823200094963174 -0.7460086506181135 -0.47926225853304594 Q -0.8247897334066051 -0.5588709326500844 -0.851534521637927 -0.650582253120688 Q -0.8782793098692488 -0.7422935735912914 -0.8548312857509859 -0.8316212857804512 Q -0.8313832616327229 -0.920948997969611 -0.7574609213811871 -0.9941028605589247 M -0.7476428428657882 -0.9784949992619545 Q -0.7874471799243075 -0.9391044578677087 -0.7852919232312268 -0.87792762509102 Q -0.7831366665381462 -0.8167507923143313 -0.7435606810679902 -0.7447716885823037 Q -0.7039846955978342 -0.6727925848502759 -0.6308308330085205 -0.5988702445987403 Q -0.5562701653694123 -0.5235263208808288 -0.48292787796868847 -0.48566593421046295 Q -0.40958559056796456 -0.44780554754009705 -0.3487715428661604 -0.4481949087126439 Q -0.2879574951643562 -0.44858426988519084 -0.25028553330540054 -0.4858646037047449 Q -0.21048119624688127 -0.5252551450989907 -0.21263645293996192 -0.5864319778756795 Q -0.21479170963304256 -0.6476088106523681 -0.25471939636564717 -0.7199433102509897 Q -0.2946470830982518 -0.7922778098496113 -0.36709754316266824 -0.8654893583679591 Q -0.4423616133266737 -0.9415440738190584 -0.5153521994649488 -0.9790490646228304 Q -0.5883427856032242 -1.0165540554266024 -0.6491568333050284 -1.0161646942540554 Q -0.7099708810068325 -1.0157753330815087 -0.7476428428657882 -0.9784949992619545 M 0.5288104429979321 -1.8210222589737637 L 0.5378480336610565 -1.803180679587235 Q 0.5097533861757668 -1.7878284555569095 0.49841733963205925 -1.774799869725788 Q 0.48708129308835174 -1.7617712838946666 0.4900827505872903 -1.743674564499095 Q 0.4930842080862287 -1.725577845103523 0.5098037508130089 -1.692570923238445 L 0.7339359992584951 -1.250099754452533 Q 0.7502036624521191 -1.2179849115567813 0.7632439283802266 -1.2044128275412649 Q 0.7762841943083338 -1.1908407435257482 0.7932687350164942 -1.1927183422402892 Q 0.8102532757246546 -1.1945959409548301 0.8397035618094129 -1.2072719280771764 L 0.8487411524725373 -1.1894303486906477 Q 0.8228591822650847 -1.1785618797009263 0.7847198863021331 -1.15980303902645 Q 0.7465805903391816 -1.141044198351974 0.7073291156888184 -1.1211614988931 Q 0.6645093251611495 -1.0994712813016014 0.6272679482160173 -1.0800463014243769 Q 0.5900265712708851 -1.0606213215471523 0.5677362771347102 -1.0470882957464376 L 0.5586986864715857 -1.0649298751329663 Q 0.5881256123623723 -1.0820779371989309 0.6010257171266474 -1.0953383028451233 Q 0.6139258218909227 -1.1085986684913158 0.6111444641100694 -1.127367367138129 Q 0.608363106329216 -1.1461360657849422 0.5920954431355919 -1.1782509086806938 L 0.3476286156980758 -1.6608656310862953 L 0.3538731684833608 -1.6640287878183888 L 0.4254555215756369 -0.9738954914721156 L 0.4111822580664139 -0.9666654189416162 L -0.1206894830043306 -1.4191568012356603 L 0.09576081337749975 -0.991850974928298 Q 0.12061418770109197 -0.942786631615344 0.13929710774515913 -0.9191815792191516 Q 0.15798002778922632 -0.895576526822959 0.18191614082487098 -0.8936890701360811 Q 0.2058522538605157 -0.8918016134492033 0.24736312617665995 -0.9072239180614449 L 0.2564007168397844 -0.8893823386749161 Q 0.2385474573562697 -0.8825807854836007 0.2106670695405721 -0.8690185594404212 Q 0.1827866817248745 -0.8554563333972415 0.15870054955306073 -0.8432555860020234 Q 0.13818273325855274 -0.8328623567394303 0.11699877776129639 -0.8215712084590178 Q 0.09581482226404006 -0.8102800601786052 0.08244531782112954 -0.8012658297094528 L 0.0734077271580051 -0.8191074090959816 Q 0.09969485651066992 -0.8380279490036128 0.10854556562201823 -0.8559629691660295 Q 0.11739627473336652 -0.8738979893284464 0.10987602190286579 -0.9009154984172826 Q 0.10235576907236507 -0.9279330075061187 0.08066555148086642 -0.9707527980337877 L -0.12268023843943354 -1.3721883342306835 Q -0.13939978116621377 -1.4051952560957615 -0.15221410732774304 -1.4183213006266149 Q -0.1650284334892723 -1.4314473451574683 -0.18268495344867394 -1.4297898461610123 Q -0.2003414734080755 -1.4281323471645566 -0.22844780099035122 -1.41501616060604 L -0.2374853916534757 -1.4328577399925688 Q -0.22276024861109656 -1.439195733553742 -0.20089847381410586 -1.449148763380165 Q -0.1790366990171152 -1.459101793206588 -0.1585188827226072 -1.469495022469181 Q -0.12015948704157048 -1.4889258423948983 -0.08359008934767964 -1.5085709219902081 Q -0.04702069165378883 -1.5282160015855177 -0.018926044168499134 -1.5435682256158434 L 0.3975134627002569 -1.1861788901301473 L 0.3856047177296891 -1.1543640855067339 L 0.3267720765909735 -1.7153174885061657 Q 0.3419374190695229 -1.7229994405698215 0.3579948405173987 -1.7311332721666335 Q 0.3740522619652745 -1.7392671037634455 0.39010968341315044 -1.7474009353602575 Q 0.4293611580635136 -1.7672836348191312 0.46682263472673086 -1.787380593947597 Q 0.5042841113899481 -1.807477553076063 0.5288104429979321 -1.8210222589737637 M 1.7093928766978244 -2.036408020919529 L 1.7120387989015962 -2.016583816126106 Q 1.6804523673423075 -2.0113591303604 1.6654529282237949 -2.00279952603952 Q 1.650453489105282 -1.99423992171864 1.6473170147153908 -1.976166113918357 Q 1.6441805403254999 -1.9580923061180746 1.6490754964024776 -1.9214175272502414 L 1.7146943670560189 -1.4297772483733435 Q 1.7194570270228082 -1.3940936797451817 1.727290013324394 -1.3769795240371379 Q 1.7351229996259803 -1.3598653683290942 1.7517761401218503 -1.3560348446540846 Q 1.7684292806177204 -1.352204320979075 1.800412600507575 -1.3544553760257676 L 1.8030585227113467 -1.3346311712323444 Q 1.775040043780177 -1.3329093006264061 1.7328474605390582 -1.3277823210632267 Q 1.6906548772979395 -1.322655341500047 1.6470416267524084 -1.316834312651749 Q 1.5994635352481923 -1.3104840993626967 1.5578988532370976 -1.3044320576149402 Q 1.5163341712260028 -1.2983800158671839 1.49082729721493 -1.2929578965229382 L 1.488181375011158 -1.3127821013163614 Q 1.5216179309396005 -1.319262589542116 1.5381703334727144 -1.3275250329084431 Q 1.5547227360058282 -1.3357874762747706 1.5582886674604606 -1.354423037249983 Q 1.561854598915093 -1.3730585982251955 1.5570919389483036 -1.4087421668533575 L 1.4855197433362757 -1.944986906515458 L 1.4924582150139738 -1.945912979286778 L 1.332365954977732 -1.2707993086530924 L 1.3165065911429934 -1.268682570890075 L 0.9636811314703262 -1.8713020154873856 L 1.0270509682506614 -1.3965123106848978 Q 1.0343272543110338 -1.3419957475029836 1.0441772509996243 -1.3135488220938158 Q 1.0540272476882147 -1.285101896684648 1.076000758978831 -1.2754238389476245 Q 1.0979742702694473 -1.265745781210601 1.1422490013659214 -1.2666107588605433 L 1.1448949235696932 -1.24678655406712 Q 1.125797336795564 -1.246255348452879 1.0950036713106637 -1.2426497741568683 Q 1.064210005825763 -1.2390441998608575 1.0374473293546418 -1.2354722048857656 Q 1.0146494938422048 -1.232429394351428 0.9909265961451912 -1.2287586825870662 Q 0.9672036984481776 -1.2250879708227045 0.9516089268338161 -1.2209888125803448 L 0.9489630046300442 -1.240813017373768 Q 0.9800202517485785 -1.2500025440981588 0.9942920622610542 -1.2640138047372302 Q 1.0085638727735298 -1.2780250653763017 1.0103773860615348 -1.3060109755732958 Q 1.01219089934954 -1.3339968857702902 1.0058406860604876 -1.381574977274506 L 0.9463074364756217 -1.8276195851265302 Q 0.9414124803986438 -1.8642943639943634 0.9336456421521521 -1.8809129145825716 Q 0.9258788039056602 -1.8975314651707798 0.9086639102348603 -1.9017914459105305 Q 0.8914490165640602 -1.9060514266502815 0.8605892030240655 -1.9029414574741061 L 0.8579432808202936 -1.9227656622675295 Q 0.8739349407652208 -1.9238911897908757 0.8978562826275174 -1.926075086195731 Q 0.9217776244898139 -1.9282589826005858 0.9445754600022508 -1.9313017931349235 Q 0.9871975003081108 -1.9369905258730329 1.0282004291442757 -1.9434720246855306 Q 1.0692033579804403 -1.9499535234980283 1.100789789539729 -1.9551782092637344 L 1.3760180677362894 -1.4804168008900578 L 1.354280622278848 -1.4543115626229062 L 1.4837938303833647 -2.003270877077517 Q 1.5006444044577743 -2.005519910950723 1.5184861887718553 -2.0079012409341175 Q 1.5363279730859363 -2.0102825709175125 1.5541697574000173 -2.0126639009009066 Q 1.5977830079455484 -2.0184849297492047 1.6397771470213844 -2.0250987246718912 Q 1.6817712860972205 -2.0317125195945778 1.7093928766978244 -2.036408020919529 M 2.6495077160168083 -1.9116609132864235 L 2.6462860398569785 -1.8919220986634229 Q 2.6140596012282113 -1.89312901759455 2.5957615315643423 -1.8834501412870344 Q 2.5774634619004733 -1.8737712649795182 2.568179495428953 -1.8479292842784247 Q 2.5588955289574327 -1.8220873035773313 2.5510024223658503 -1.7737272077509796 L 2.508315213248107 -1.5121879139962209 Q 2.49784476572866 -1.4480367664714686 2.4802637735167696 -1.3961917212612902 Q 2.4626827813048795 -1.3443466760511118 2.433700875976761 -1.3095609151200645 Q 2.401113813223226 -1.2713106426883918 2.3477396814659373 -1.2546913148092151 Q 2.2943655497086484 -1.2380719869300385 2.218371113410096 -1.2504754401453826 Q 2.1729718397771944 -1.2578852953129909 2.127290064665903 -1.2759801957736576 Q 2.0816082895546124 -1.2940750962343242 2.048775972202664 -1.3288175621413516 Q 2.021543131621633 -1.36061964373813 2.0102419886637932 -1.3969140533330864 Q 1.998940845705953 -1.4332084629280426 2.0005095983906567 -1.480067709774468 Q 2.0020783510753604 -1.5269269566208936 2.0123877147868154 -1.5900911634144956 L 2.0629680304961413 -1.8999905529956063 Q 2.0689281313918264 -1.9365073600481575 2.066318924010352 -1.9546647837872362 Q 2.0637097166288783 -1.972822207526315 2.048965709682422 -1.981814663206654 Q 2.0342217027359664 -1.990807118886993 2.0028006831471568 -1.9969487414738705 L 2.006022359306986 -2.016687556096871 Q 2.0305347937777456 -2.011673520165934 2.0723186910436304 -2.0038405175951457 Q 2.1141025883095157 -1.9960075150243577 2.159501861942417 -1.9885976598567494 Q 2.2049011355753185 -1.9811878046891411 2.247007200457187 -1.9753286835806532 Q 2.2891132653390542 -1.9694695624721652 2.316908689619247 -1.9659461565795535 L 2.3136870134594174 -1.946207341956553 Q 2.2799699447923247 -1.9506972506971132 2.2616514372452543 -1.947101102584489 Q 2.243332929698184 -1.943504954471865 2.234592318671433 -1.9271999945246883 Q 2.225851707644682 -1.9108950345775115 2.219891606748997 -1.8743782275249603 L 2.1591630111362075 -1.5023015718813977 Q 2.148370396000778 -1.4361765428943454 2.152884371510966 -1.389337733931121 Q 2.1573983470211537 -1.3424989249678967 2.1837951117374255 -1.3148862320077057 Q 2.210191876453697 -1.2872735390475147 2.262499735204649 -1.278736097223966 Q 2.3315855863851516 -1.2674602306645621 2.375885510929297 -1.2936664643768496 Q 2.4201854354734422 -1.319872698089137 2.4458933603049196 -1.3749508480295545 Q 2.471601285136397 -1.430028997969972 2.4838436545437497 -1.5050364935373746 L 2.5263697798535016 -1.7655888465609835 Q 2.535229389293033 -1.8198705867742353 2.533072776510732 -1.8501129249991015 Q 2.5309161637284303 -1.880355263223968 2.5127779682437437 -1.8964877107927438 Q 2.4946397727590575 -1.9126201583615197 2.453832597282722 -1.9233334412217622 L 2.4570542734425516 -1.9430722558447628 Q 2.475645063526411 -1.9390247227617747 2.5060791423840705 -1.9330441839828887 Q 2.53651322124173 -1.9270636452040026 2.5631606209827806 -1.9227143823882324 Q 2.5868471985303816 -1.9188483709964368 2.610201389520399 -1.916049842239787 Q 2.633555580510416 -1.913251313483137 2.6495077160168083 -1.9116609132864235 M 3.5097715833771197 -1.5653423976717389 L 3.501610397895208 -1.5470832889440427 Q 3.4707635868345115 -1.5564893639695616 3.45105555892616 -1.5516063694002806 Q 3.431347531017808 -1.5467233748309996 3.415308675717111 -1.5243179040561352 Q 3.3992698204164142 -1.5019124332812708 3.379274915985731 -1.4571776168984147 L 3.1515778410403996 -0.9477484833956868 Q 3.1410304350778775 -0.9535581501212185 3.1296184921230674 -0.9586588910474132 Q 3.1182065491682573 -0.9637596319736079 3.105017113784774 -0.9685595063745611 L 2.9332270551463298 -1.6477827213436904 L 2.776532293893629 -1.2972078337719206 Q 2.754089033818372 -1.2469952847707555 2.747529017850862 -1.21761474375283 Q 2.740969001883351 -1.1882342027349044 2.7545838474030453 -1.1684570446611349 Q 2.768198692922739 -1.1486798865873653 2.8063284357531932 -1.126160501345236 L 2.7981672502712818 -1.1079013926175396 Q 2.7816372155281615 -1.117480429698125 2.75353962663728 -1.1305867449132805 Q 2.725442037746398 -1.1436930601284356 2.700792240964008 -1.1547106605290163 Q 2.6797942659271574 -1.1640960238332145 2.657679305816874 -1.1734329686933158 Q 2.6355643457065905 -1.1827699135534173 2.6201409401762423 -1.1874729510661768 L 2.628302125658154 -1.2057320597938732 Q 2.659556995992946 -1.1972389402047388 2.67906099426425 -1.2016654570558274 Q 2.698564992535554 -1.206091973906916 2.714807877473299 -1.2289539223999728 Q 2.7310507624110434 -1.2518158708930296 2.750637607567631 -1.295637731839501 L 2.9342642809106403 -1.7064676782126686 Q 2.9493624740521764 -1.740247029358907 2.9514822564487324 -1.758468075503167 Q 2.953602038845289 -1.776689121647427 2.94119065942656 -1.789356310006505 Q 2.928779280007832 -1.8020234983655836 2.9008857207539984 -1.8155862912989311 L 2.90904690623591 -1.8338454000266275 Q 2.9232461339439713 -1.8264034962047133 2.9447490051431116 -1.8156971181900348 Q 2.9662518763422514 -1.8049907401753562 2.987249851379102 -1.795605376871158 Q 3.009160781852338 -1.785811954292864 3.0296538607268992 -1.7777476056991464 Q 3.050146939601461 -1.7696832571054286 3.0669881967304833 -1.763251145608093 L 3.2256576768678182 -1.1698524633775476 L 3.353380229659733 -1.4556075149659953 Q 3.37582348973499 -1.5058200639671602 3.3823835057025002 -1.5352006049850857 Q 3.388943521670011 -1.5645811460030115 3.3755327057873648 -1.5848147817949734 Q 3.3621218899047185 -1.605048417586935 3.323584087800169 -1.6266548473926798 L 3.3317452732820803 -1.644913956120376 Q 3.348683367299296 -1.6362478744761755 3.3765769265531302 -1.6226850815428278 Q 3.4044704858069634 -1.60912228860948 3.429120282589354 -1.5981046882088994 Q 3.4510312130625893 -1.5883112656306058 3.472893725091728 -1.5796348281257444 Q 3.4947562371208667 -1.5709583906208833 3.5097715833771197 -1.5653423976717389 M 3.959920231891493 -1.2491900310516153 L 3.9482345949167774 -1.2329590148020035 Q 3.9216806870686627 -1.2508444831490682 3.904492266645951 -1.255210053372085 Q 3.8873038462232383 -1.2595756235951014 3.8730211598079594 -1.2482948936203702 Q 3.8587384733926804 -1.2370141636456389 3.8371200449894562 -1.2069867835838572 L 3.5473162480165077 -0.8044575805934879 Q 3.5262821014620194 -0.7752417513441869 3.5202285576534185 -0.7574202865514896 Q 3.5141750138448176 -0.7395988217587923 3.5236541357520923 -0.7253810073041363 Q 3.533133257659367 -0.7111631928494803 3.557934319961274 -0.6908430720649741 L 3.5462486829865583 -0.6746120558153623 Q 3.525505374747054 -0.6920107673561897 3.492523932359718 -0.7163720985605971 Q 3.459542489972382 -0.7407334297650046 3.4254573558481973 -0.7652732674119075 Q 3.385691366036649 -0.7939030779999608 3.351719866394337 -0.8177449993162555 Q 3.3177483667520247 -0.8415869206325504 3.295479481930058 -0.8551551470747195 L 3.3071651189047735 -0.8713861633243312 Q 3.334303308601624 -0.8543122457897473 3.350793812693728 -0.8498330410848582 Q 3.367284316785832 -0.8453538363799692 3.3822649195317194 -0.8567482008365729 Q 3.397245522277607 -0.8681425652931766 3.4182796688320947 -0.8973583945424776 L 3.7080834658050437 -1.2998875975328468 Q 3.7297018942082674 -1.3299149775946284 3.7354632970925006 -1.3473306669810854 Q 3.7412246999767333 -1.3647463563675426 3.7316319435875864 -1.3796620871528067 Q 3.7220391871984395 -1.394577817938071 3.697465393860277 -1.4135021060613608 L 3.7091510308349926 -1.4297331223109724 Q 3.7296670701107524 -1.4137302434313614 3.7627621469799606 -1.388670995896346 Q 3.7958572238491692 -1.3636117483613304 3.8356232136607176 -1.3349819377732768 Q 3.8697083477849024 -1.310442100126374 3.903566212945342 -1.2872980951406874 Q 3.9374240781057814 -1.2641540901550008 3.959920231891493 -1.2491900310516153 M 4.563197135086912 -0.6591343155379426 Q 4.523237074019314 -0.6271938471714034 4.487905524717608 -0.5961627075864468 Q 4.4525739754159 -0.5651315680014903 4.434325969674772 -0.5480432595283924 Q 4.418267724622579 -0.5330055480720662 4.404352852368601 -0.5186049810639428 Q 4.390437980114622 -0.5042044140558193 4.3809026292385145 -0.4939050410812393 L 4.365181385443265 -0.5106932063630772 Q 4.415558167310673 -0.5797886465070083 4.434577716259648 -0.6311647767405861 Q 4.453597265208623 -0.6825409069741637 4.445320530392935 -0.7213706077300384 Q 4.437043795577247 -0.7602003084859131 4.405601307986746 -0.7937766390495891 L 4.389880064191496 -0.8105648043314271 L 3.9730956130641277 -0.42026783880586976 Q 3.9438988038783225 -0.3929265452489131 3.9351104241662735 -0.37305157651845106 Q 3.926322044454224 -0.35317660778798915 3.9372988067567807 -0.33194548230314574 Q 3.9482755690593376 -0.3107143568183023 3.977621071742345 -0.27791433437499263 L 3.9630226671494424 -0.2642436875965143 Q 3.9425630848724458 -0.28755474705443723 3.908091089647509 -0.3258291712200853 Q 3.8736190944225726 -0.36410359538573334 3.8353412834428333 -0.4049791282458606 Q 3.7977470048020177 -0.4451247408763427 3.7635239999651007 -0.4802072997900301 Q 3.7293009951281837 -0.5152898587037176 3.708065104730821 -0.5365039332541475 L 3.7226635093237235 -0.5501745800326259 Q 3.7541523848049447 -0.5180117020375189 3.7746181100928884 -0.5056664969586864 Q 3.7950838353808316 -0.49332129187985396 3.8151504986851257 -0.5011525768211713 Q 3.8352171619894198 -0.5089838617624886 3.8644139711752246 -0.5363251553194454 L 4.281198422302594 -0.9266221208450025 L 4.266160710846267 -0.9426803658971954 Q 4.234718223255767 -0.9762566964608713 4.196514759024629 -0.9870615713208655 Q 4.15831129479349 -0.9978664461808595 4.106505387521527 -0.9822332132545326 Q 4.054699480249565 -0.9665999803282057 3.980352678629098 -0.9216382956532849 L 3.9646314348338483 -0.9384264609351229 Q 3.9762173827267278 -0.9465360732207675 3.991157553489092 -0.9598417598844233 Q 4.006097724251457 -0.973147446548079 4.0221559693036495 -0.9881851580044052 Q 4.040403975044778 -1.0052734664775032 4.0736849273297135 -1.038494366751395 Q 4.106965879614648 -1.071715267025287 4.141457681970854 -1.1094950972289872 Q 4.172170249331709 -1.0752352343263873 4.208692841573418 -1.034771049471804 Q 4.245215433815126 -0.9943068646172205 4.282809712455942 -0.9541612519867384 Q 4.320403991096757 -0.9140156393562563 4.35047941400941 -0.8818991492518706 Q 4.381238369260986 -0.8490527389178398 4.418490881732339 -0.8092720864021803 Q 4.455743394203693 -0.7694914338865207 4.494067593074154 -0.7300293535949626 Q 4.532391791944614 -0.6905672733034043 4.563197135086912 -0.6591343155379426 M 5.003705124476169 0.06123680355804556 L 4.98630010879158 0.0710889824550815 Q 4.967630454946775 0.056376945705699455 4.9332388034331025 0.049415314706994395 Q 4.898847151919431 0.042453683708289336 4.838060559115189 0.04468754477186143 L 4.41948367523638 0.06444589192706507 L 4.396331054828345 0.023544105068280197 L 4.657879151304383 -0.39339425156224306 Q 4.678600716960852 -0.42580746980333456 4.681030645887025 -0.44384480456803155 Q 4.683460574813198 -0.4618821393327286 4.678041876419829 -0.4714548979592527 L 4.696317142888647 -0.48179968580114046 Q 4.707006832046957 -0.4568250877923895 4.720175936191004 -0.43153033149699793 Q 4.733345040335051 -0.40623557520160647 4.750093744460012 -0.3766470485378046 Q 4.771768538033491 -0.33835601403170823 4.798196970397277 -0.2947121374532832 Q 4.824625402761063 -0.2510682608748582 4.847055480013298 -0.21550294582692425 L 4.828780213544478 -0.2051581579850365 Q 4.816464989923183 -0.2269144275907731 4.80313180788923 -0.2423490074959552 Q 4.789798625855276 -0.25778358740113727 4.776720121062052 -0.25957319975402915 Q 4.763641616268829 -0.261362812106921 4.749537155569772 -0.23958979696457608 L 4.562813130450599 0.04766294617862593 L 4.512732221791015 0.040389529661584433 L 4.7436128554462496 0.02805530885289717 Q 4.824497442870287 0.024786743840057857 4.861409247385825 0.006765404061707836 Q 4.8983210519013625 -0.01125593571664224 4.902466739366213 -0.03945723489671166 Q 4.906612426831063 -0.06765853407678107 4.887285710876369 -0.1038314251750409 L 4.904690726560958 -0.11368360407207684 Q 4.9205691799016895 -0.08360246846342329 4.934477197463014 -0.05700233599168758 Q 4.948385215024338 -0.03040220351995182 4.963656092314745 -0.0034244292088383976 Q 4.974493489101484 0.015721088044209852 4.984969614310323 0.032198369391832626 Q 4.9954457395191625 0.048675650739455345 5.003705124476169 0.06123680355804556 M 4.5919585342291125 0.04840148432077296 L 4.373525587387517 0.17204632947857423 Q 4.342196559155257 0.18978025149323896 4.329241394235811 0.20343359181383341 Q 4.316286229316366 0.2170869321344278 4.318946467728617 0.2339665983512101 Q 4.321606706140869 0.25084626456799225 4.335629690807668 0.2796795075530388 L 4.318224675123079 0.2895316864500747 Q 4.306664735180539 0.26504969738617556 4.286163980416452 0.22781773458399746 Q 4.265663225652366 0.1905857717818193 4.24497364996859 0.15403523884418174 Q 4.221821029560556 0.1131334519853969 4.200696328484666 0.07682922352018529 Q 4.179571627408775 0.04052499505497367 4.166008511163874 0.020624194123170098 L 4.1834135268484625 0.010772015226134135 Q 4.200917514652179 0.03763482243177341 4.214020762475185 0.04860318131033409 Q 4.22712401029819 0.05957154018889471 4.245497873611005 0.05549095849482441 Q 4.263871736923821 0.05141037680075411 4.295200765156081 0.03367645478608938 L 4.473602175923122 -0.0673083789085292 L 4.462503605503001 0.0389451939002457 L 4.5919585342291125 0.04840148432077296" fill="#173054" fill-rule="nonzero"></path></g><g><path d=" M -0.8833425007454068 2.7163943805865256 L -0.9024018860472895 2.722455719705431 Q -0.9156088387419694 2.694125940311294 -0.9396452887058886 2.671338902918688 Q -0.9636817386698078 2.6485518655260822 -1.0077305432007038 2.6321292342083273 L -1.3016058741763938 2.52306370416364 L -1.248242907155985 2.5291787471543925 L -1.4957045108007514 2.8597218679745975 Q -1.5143766041770355 2.8834990193798298 -1.521656834769448 2.9068013420649463 Q -1.5289370653618604 2.930103664750063 -1.5271657438483102 2.9620702476155434 L -1.546225129150193 2.968131586734449 Q -1.5515927975626913 2.944654190460299 -1.5618751898662013 2.910672248071484 Q -1.5721575821697114 2.8766903056826694 -1.5797342560683432 2.8528660740553162 Q -1.5848863943194127 2.8366655965487158 -1.592788019372619 2.8134693830318818 Q -1.6006896444258252 2.7902731695150482 -1.6138090603259885 2.7556194406184553 L -1.5947496750241057 2.74955810149955 Q -1.5825394599917781 2.78135292260086 -1.5702821647373293 2.786898976427255 Q -1.5580248694828804 2.792445030253649 -1.5409556476808395 2.770226982025402 L -1.375550184928138 2.5644187390136977 Q -1.352069476829125 2.5359642780775116 -1.3419959910373176 2.516495716651401 Q -1.33192250524551 2.4970271552252896 -1.3321582636931364 2.47978782757151 Q -1.3323940221407626 2.4625484999177303 -1.3390177267743002 2.4384212013344317 L -1.3199583414724174 2.432359862215526 Q -1.3062765600576218 2.4720815043935347 -1.2828681282042225 2.494543590631566 Q -1.259459696350823 2.5170056768695974 -1.2308301618256037 2.5278384859636995 L -1.0854734837133724 2.582349366787414 Q -1.0354475650332244 2.6010685403858194 -1.004174652874151 2.603715229844536 Q -0.9729017407150777 2.6063619193032532 -0.9620705875334071 2.5892757810398774 Q -0.9512394343517364 2.572189642776502 -0.9630152772363436 2.5318618666866026 L -0.9439558919344608 2.5258005275676974 Q -0.9391505890365949 2.5442100105604313 -0.9335657345502365 2.5634209293402868 Q -0.9279808800638781 2.5826318481201422 -0.9225475590554923 2.601366282267451 Q -0.9171142380471068 2.620100716414759 -0.9119620997960372 2.6363011939213594 Q -0.9040823589414602 2.6610783948138073 -0.8964619166455701 2.681740651689933 Q -0.88884147434968 2.702402908566059 -0.8833425007454068 2.7163943805865256 M -0.9797177927360028 2.4133501542865887 L -0.9987771780378856 2.4194114934054944 Q -1.010034423805119 2.387313605348239 -1.0215323957572733 2.3726065784227353 Q -1.0330303677094272 2.357899551497232 -1.0515257315842463 2.3574854076357097 Q -1.0700210954590654 2.357071263774187 -1.1052809582675487 2.368284741144162 L -1.5779537137542428 2.5186059512930163 Q -1.6122606072976318 2.529516361707046 -1.6275956523336548 2.5406893825046257 Q -1.6429306973696776 2.5518624033022057 -1.6433448412312002 2.5703577671770246 Q -1.6437589850927228 2.588853131051844 -1.635360647120772 2.621860219976935 L -1.6544200324226548 2.6279215590958405 Q -1.6594846338792077 2.6053971320867846 -1.6694639592267724 2.572368158963064 Q -1.6794432845743372 2.539339185839344 -1.6900506280324217 2.5059852615610487 Q -1.7018702393142873 2.4688194602223774 -1.7126510004489734 2.436570038687149 Q -1.7234317615836598 2.404320617151921 -1.7317021061886988 2.3849143964968347 L -1.712642720886816 2.378853057377929 Q -1.7004325058544885 2.4106478784792396 -1.6894110185348814 2.4255064388827154 Q -1.6783895312152743 2.440364999286191 -1.6594176827079081 2.440627609669741 Q -1.640445834200542 2.440890220053291 -1.606138940657153 2.4299798096392613 L -1.1334661851704588 2.279658599490407 Q -1.0982063223619756 2.268445122120432 -1.0833477619584997 2.257423634800825 Q -1.0684892015550238 2.2464021474812177 -1.0675985730609543 2.227755250128426 Q -1.0667079445668846 2.209108352775634 -1.0760592518039296 2.176404330806488 L -1.0569998665020468 2.170342991687583 Q -1.0515884296922904 2.190658413210505 -1.0422371224552451 2.2233624351796513 Q -1.0328858152182003 2.256066457148797 -1.0210662039363347 2.2932322584874685 Q -1.0104588604782503 2.3265861827657637 -0.9990500812330442 2.359160555455566 Q -0.9876413019878382 2.391734928145369 -0.9797177927360028 2.4133501542865887 M -0.674543321763829 3.0467631058722224 Q -0.6247050784151944 3.1276404790981274 -0.6238028957761053 3.211069706989111 Q -0.6229007131370159 3.294498934880095 -0.6707114282150608 3.3703582489010246 Q -0.7185221432931055 3.4462175629219542 -0.81642633193499 3.5065480680281964 Q -0.9117764982644776 3.5653047338707973 -1.004535953070748 3.5748929320353886 Q -1.0972954078770185 3.58448113019998 -1.1750805664319577 3.5478414098328295 Q -1.2528657249868966 3.5112016894656786 -1.3016547421597706 3.432026997781372 Q -1.3514929855084052 3.3511496245554673 -1.3523951681474944 3.2677203966644837 Q -1.3532973507865838 3.1842911687734996 -1.3050609653231395 3.10816954820863 Q -1.2568245798596953 3.03204792764376 -1.1597717319886096 2.9722420356253982 Q -1.064421565659122 2.9134853697827974 -0.9713998043089115 2.9043228420036056 Q -0.8783780429587008 2.8951603142244138 -0.8008551909477019 2.9313743642061647 Q -0.723332338936703 2.967588414187916 -0.674543321763829 3.0467631058722224 M -0.6919659079897325 3.052800778370873 Q -0.7260657587019561 2.9974636282689384 -0.7895575216061685 2.980206860225203 Q -0.8530492845103809 2.9629500921814675 -0.9342074522323311 2.9818339956978432 Q -1.0153656199542815 3.0007178992142185 -1.1039050601173772 3.0552776603537763 Q -1.1941471818220708 3.110886647669095 -1.2455013462373212 3.177183327806274 Q -1.2968555106525717 3.243480007943453 -1.3065445324735705 3.308768773103718 Q -1.3162335542945693 3.374057538263983 -1.2842321559338672 3.4259893252827216 Q -1.2501323052216435 3.4813264753846562 -1.186640542317431 3.4985832434283917 Q -1.123148779413219 3.515840011472127 -1.041564941305869 3.4966938014118116 Q -0.959981103198519 3.4775475913514957 -0.8722930038062224 3.4235124432998183 Q -0.7811995413307299 3.367378842896619 -0.7302710473008789 3.3013444693033804 Q -0.679342553271028 3.2353100957101417 -0.6693912249060889 3.170447000935276 Q -0.6594398965411499 3.105583906160411 -0.6919659079897325 3.052800778370873 M -0.27574741131256775 3.5587625558173186 Q -0.24042984704690196 3.594155629353543 -0.2302051205420873 3.6206830673734824 Q -0.21998039403727265 3.6472105053934225 -0.2157634289211492 3.6712566528022985 Q -0.2122422437924607 3.6846954494481854 -0.20942212430014662 3.6924766399772158 Q -0.20660200480783253 3.7002578305062457 -0.20165754581063933 3.7052128608013173 Q -0.1945940329575061 3.712291475508562 -0.1836289759956269 3.7077069879883755 Q -0.17266391903374756 3.7031225004681896 -0.15497191282186917 3.68970635660347 L -0.1387258332596628 3.705987170430133 Q -0.15146582954729237 3.717287280809735 -0.16916010103728762 3.732824743808511 Q -0.18685437252728299 3.748362206807287 -0.21446021479283228 3.7752028005564875 Q -0.24206605705838147 3.802043394305688 -0.2866613297140239 3.8465435252804268 L -0.3029074092762303 3.8302627114537637 Q -0.27104911253739505 3.7942342653465513 -0.25261753096115735 3.750413302319725 Q -0.23418594938491977 3.706592339292898 -0.23873494754794367 3.6623932825641305 Q -0.24328394571096745 3.618194225835363 -0.28283961768851307 3.578553983474792 Q -0.32027623581011866 3.5410373255263945 -0.3672969222166115 3.539219345916426 Q -0.4143176086231043 3.537401366306457 -0.4511264051007774 3.5741316331427493 Q -0.4829801712833792 3.6059174409818486 -0.4883238665782697 3.643741969010568 Q -0.4936675618731602 3.681566497039287 -0.4838156434213474 3.726124770152356 Q -0.47396372496953465 3.7706830432654246 -0.46199803831072106 3.822314645436799 Q -0.4479193385376121 3.8817266830444983 -0.4416097478102442 3.9326451380962095 Q -0.43530015708287617 3.9835635931479203 -0.44559963776554357 4.027039686551852 Q -0.45589911844821107 4.070515779955783 -0.4941236378673332 4.108658749362702 Q -0.5394267719937001 4.1538652316227545 -0.5896411410382145 4.163004002954903 Q -0.639855510082729 4.172142774287052 -0.6886254626629822 4.152998800683857 Q -0.7373954152432355 4.133854827080661 -0.7783637897914077 4.0927988617786415 Q -0.8158004079130133 4.055282203830243 -0.8292029601090323 4.024862282814025 Q -0.8426055123050513 3.994442361797806 -0.8489430414625259 3.9696868427327945 Q -0.8545727091492761 3.9442249723824694 -0.8630489245730358 3.9357306347337757 Q -0.870112437426169 3.9286520200265307 -0.8810774943880482 3.933236507546717 Q -0.8920425513499275 3.9378209950669034 -0.909734557561806 3.951237138931623 L -0.9259806371240122 3.9349563251049595 Q -0.9097028436681714 3.921538671054829 -0.8891756161098671 3.901761590158762 Q -0.8686483885515626 3.881984509262695 -0.8357335852555797 3.8498462808736447 Q -0.8028187819595969 3.817708052484594 -0.7532684790088829 3.768263462512662 L -0.7370223994466767 3.784544276339325 Q -0.7766686825488924 3.829756799341022 -0.8004099802482694 3.879582503385717 Q -0.8241512779476461 3.929408207430413 -0.8192543897909048 3.9789109395406745 Q -0.8143575016341633 4.028413671650937 -0.7691510193741112 4.073716805777304 Q -0.7458414269587719 4.097076234311212 -0.7154479341872486 4.108422405345854 Q -0.6850544414157254 4.119768576380497 -0.6507518536084 4.112380581407519 Q -0.6164492658010747 4.104992586434541 -0.5831797766770241 4.0717940760248155 Q -0.5541574563773203 4.04283367332697 -0.5463415315838331 4.007486660445786 Q -0.538525606790346 3.9721396475646027 -0.5444895728021133 3.928646187028443 Q -0.5504535388138805 3.8851527264922834 -0.5638319280433207 3.8321054013794598 Q -0.5765024558020364 3.7783517249813228 -0.5842270143781478 3.7281388661222197 Q -0.5919515729542593 3.6779260072631166 -0.5812966513508184 3.6326825254604906 Q -0.5706417297473775 3.5874390436578647 -0.5310014873868064 3.547883371680319 Q -0.4892376606140619 3.506208645846834 -0.4432666849303665 3.4977724503364698 Q -0.397295709246671 3.489336254826106 -0.35382716676979553 3.5067067992889625 Q -0.31035862429292016 3.524077343751819 -0.27574741131256775 3.5587625558173186 M 0.20696056017136 3.957388455503613 L 0.07040695300927524 4.6180927103491705 Q 0.0623749221134664 4.658148752086825 0.07154544987138245 4.678961042221294 Q 0.08071597762929861 4.699773332355762 0.09361012272300429 4.709299140578819 L 0.08275262961209284 4.726095415265384 Q 0.06704210423662005 4.713558294685815 0.04295894326887495 4.69739502280783 Q 0.018875782301129962 4.681231750929844 -0.00547881599438782 4.665488385919023 Q -0.03823155163318759 4.644316274352745 -0.06705665592811916 4.62627844293136 Q -0.09588176022305073 4.6082406115099745 -0.11460359795503405 4.598519871212174 L -0.10374610484412261 4.58172359652561 Q -0.05982985508229327 4.607730576489778 -0.03965790564074212 4.602313708785329 Q -0.019485956199190912 4.59689684108088 -0.008595623452930745 4.54320884751923 L 0.10500772576817397 4.024846735626638 L 0.12550211603951755 4.0226151515691 L -0.26600481804018805 4.307750769420517 Q -0.30115682401126215 4.3326573243049165 -0.31860531824175004 4.354123578032305 Q -0.33605381247223787 4.375589831759694 -0.33760139021917734 4.393641286081082 Q -0.3391489679661168 4.41169274040247 -0.32573290900120777 4.428700366981452 Q -0.31231685003629867 4.4457079935604344 -0.28682549892767006 4.463376921616675 L -0.2976829920385815 4.480173196303239 Q -0.32011202728867993 4.463293078479307 -0.34545490885791724 4.446315494618003 Q -0.37079779042715455 4.429337910756699 -0.39263294751968775 4.4152231697125135 Q -0.4136282908778927 4.401651303323874 -0.428596468556409 4.39257090371899 Q -0.44356464623492525 4.383490504114107 -0.4572476015609394 4.37702701174958 L -0.44639010845002797 4.3602307370630164 Q -0.4268794604857361 4.366889161502287 -0.3992001909372508 4.362752975183672 Q -0.3715209213887655 4.358616788865057 -0.33281472840563536 4.330054039964563 L 0.19352354042210873 3.948702461014884 Q 0.19688279535942155 3.9508739596370663 0.20024205029673436 3.9530454582592482 Q 0.20360130523404707 3.9552169568814306 0.20696056017136 3.957388455503613 M 0.07869610715253172 4.380540000569658 L 0.06783861404162028 4.3973362752562215 L -0.18242587878818317 4.2355596279036405 L -0.1631702483339897 4.224192099772533 L 0.07869610715253172 4.380540000569658 M 1.5507196725918058 4.436188073426436 L 1.5466161738788262 4.455762579762806 Q 1.5131343381713487 4.449765357267559 1.494673008045307 4.452536510453022 Q 1.4762116779192653 4.455307663638485 1.4667487646444972 4.4712043070689145 Q 1.457285851369729 4.487100950499344 1.449694378750717 4.523313787221628 L 1.3479276106688236 5.008761544363595 Q 1.3405413129854604 5.04399565576906 1.3427205160446896 5.062843761085687 Q 1.344899719103919 5.081691866402314 1.3607963625343484 5.0911547796770815 Q 1.376693005964778 5.100617692951849 1.4095593168653084 5.1095510913975515 L 1.405455818152329 5.129125597733921 Q 1.3833554857368018 5.122449123580358 1.3496920497743887 5.114881225642059 Q 1.3160286138119754 5.10731332770376 1.2817732277233285 5.100132204956045 Q 1.2436029403674078 5.092130382465736 1.2102236921277552 5.08564379731208 Q 1.176844443888102 5.079157212158424 1.1558808623636159 5.076805989143432 L 1.1599843610765954 5.057231482807063 Q 1.1936713717197218 5.0622499799854905 1.212030114377939 5.059968189458437 Q 1.2303888570361565 5.057686398931383 1.239954357778749 5.041300392842544 Q 1.2495198585213416 5.024914386753705 1.2569061562047048 4.98968027534824 L 1.369752370811643 4.451381351098075 L 1.37305174727197 4.455138226791126 L 0.998258936994414 5.048871626023688 L 0.9825993319253183 5.0455888270533045 L 0.8691190853232481 4.358692012654567 L 0.7607867193005873 4.875458979934725 Q 0.7534004216172241 4.910693091340191 0.7555560499957402 4.932090597416687 Q 0.7577116783742562 4.953488103493185 0.7750528350992003 4.965808179931297 Q 0.7923939918241444 4.978128256369409 0.8301539293087672 4.988087529493357 L 0.8260504305957876 5.007662035829726 Q 0.808843724764353 5.002011436354407 0.7805632780444415 4.995572000562178 Q 0.75228283132453 4.989132564769949 0.7268359730872495 4.983798016443075 Q 0.7023678401667874 4.978668643051851 0.6773077571200916 4.97392604485121 Q 0.6522476740733959 4.969183446650571 0.6351989938161837 4.967652923378175 L 0.6393024925291633 4.948078417041805 Q 0.6729895031722897 4.953096914220234 0.6918611831696294 4.948368310401134 Q 0.7107328631669692 4.943639706582034 0.7208113012486841 4.924806887201149 Q 0.730889739330399 4.905974067820264 0.7382760370137622 4.870739956414798 L 0.8379910557391659 4.395079452441016 Q 0.8455825283581782 4.358866615718733 0.8433007378311244 4.340507873060515 Q 0.8410189473040706 4.322149130402298 0.8252248913414655 4.3121968544691205 Q 0.8094308353788604 4.3022445785359436 0.776359349542681 4.29428990540706 L 0.7804628482556606 4.27471539907069 Q 0.7968960037059258 4.279182098293541 0.8216483243491481 4.285392784469408 Q 0.8464006449923704 4.291603470645276 0.8708687779128325 4.296732844036501 Q 0.8924007348828391 4.301246692620778 0.9156059547637223 4.30508957829171 Q 0.9388111746446056 4.308932463962643 0.9546759546493504 4.3112365376162085 L 1.0541519900490566 4.943088987465979 L 1.0358722601779504 4.947430816094494 L 1.379805942658443 4.40342381057397 Q 1.3915506464602647 4.405885909801757 1.4028059876036774 4.408245421561721 Q 1.4140613287470898 4.410604933321684 1.4258060325489117 4.413067032549471 Q 1.4600614186375585 4.420248155297186 1.494032617003445 4.426347965260257 Q 1.5280038153693316 4.432447775223328 1.5507196725918058 4.436188073426436 M 1.8798541441217906 4.402671186764862 Q 1.929796065388328 4.4002619337256395 1.9563199926459482 4.410495764036548 Q 1.9828439199035688 4.420729594347455 2.0034952792611658 4.433749631086397 Q 2.015818635790626 4.440163279334299 2.023478571693352 4.443297825867074 Q 2.0311385075960784 4.446432372399848 2.0381303765733936 4.446095076974356 Q 2.048118760826701 4.445613226366512 2.0520834980720606 4.434409170914344 Q 2.05604823531742 4.423205115462175 2.0579846792561542 4.4010861149225455 L 2.0809579630387613 4.399977858524504 Q 2.080778270646766 4.41700629681591 2.0804123619372046 4.44055127740236 Q 2.080046453227643 4.464096257988809 2.0814021588551785 4.502575629894435 Q 2.0827578644827147 4.541055001800061 2.0857935233121347 4.603981822595897 L 2.0628202395295276 4.60509007899394 Q 2.057510841335882 4.557290389760418 2.0374116070054127 4.514208830139984 Q 2.017312372674944 4.471127270519552 1.9815032652990687 4.444822179207355 Q 1.9456941579231937 4.418517087895157 1.889759206104672 4.421215451299086 Q 1.8368207695621426 4.423769259520662 1.8039027658333342 4.457394473728309 Q 1.7709847621045258 4.491019687935956 1.773490385265317 4.542959286053155 Q 1.7756587130006172 4.587907015193038 1.8001016411371498 4.617263330767583 Q 1.8245445692736826 4.646619646342129 1.8641803826381351 4.669236062922531 Q 1.9038161960025877 4.691852479502933 1.9501131068444357 4.717651627676894 Q 2.003594626906737 4.747108834126687 2.045565412547342 4.776620749562835 Q 2.087536198187947 4.806132664998983 2.1128399334930283 4.842956176233117 Q 2.1381436687981097 4.87977968746725 2.14074566208047 4.933716962435111 Q 2.1438295059706745 4.997642621656278 2.11688696418903 5.040991202282918 Q 2.089944422407385 5.0843397829095585 2.043012064267983 5.1076282727591575 Q 1.9960797061285804 5.130916762608757 1.9381470774593974 5.1337114961342545 Q 1.885208640916868 5.13626530435583 1.8536664290022016 5.12577298013618 Q 1.8221242170875351 5.1152806559165285 1.799523365940061 5.103355827724487 Q 1.7768743297318024 5.090432161107114 1.7648882686278333 5.0910103818365275 Q 1.754899884374526 5.091492232444372 1.7509351471291665 5.10269628789654 Q 1.746970409883807 5.113900343348708 1.7450339659450727 5.1360193438883375 L 1.7220606821624656 5.13712760028638 Q 1.7230464727366537 5.116055623232866 1.7221726177169623 5.087564635580547 Q 1.7212987626972711 5.059073647928229 1.719581669113852 5.013102987832622 Q 1.7178645755304327 4.967132327737016 1.7144916212755215 4.897213637963864 L 1.7374649050581286 4.896105381565822 Q 1.7443513624065183 4.9558429468425285 1.7653354964359282 5.006891121335215 Q 1.7863196304653381 5.057939295827901 1.826292739255282 5.087547581385619 Q 1.8662658480452257 5.117155866943335 1.930191507266393 5.114072023053131 Q 1.9631531753023077 5.112481916047244 1.9919684105289748 5.097576138012138 Q 2.0207836457556416 5.0826703599770315 2.0383401165437847 5.05228911027487 Q 2.0558965873319273 5.021907860572709 2.0536318894750583 4.9749624545821645 Q 2.051656301982896 4.9340100791436035 2.030709308335021 4.904485115856312 Q 2.009762314687146 4.874960152569022 1.973526065689782 4.8501774114252125 Q 1.9372898166924182 4.825394670281404 1.8889952289999086 4.799691892229012 Q 1.8406524562466147 4.772990275751289 1.7982545289845209 4.745000710483529 Q 1.755856601722427 4.7170111452157695 1.7294817504008382 4.678737561404423 Q 1.7031068990792493 4.640463977593078 1.7004085356753202 4.584529025774557 Q 1.6975656170890379 4.525597558680043 1.7221797105201013 4.485865375194021 Q 1.746793803951165 4.446133191708 1.7888524326158746 4.42558272322565 Q 1.8309110612805843 4.4050322547433 1.8798541441217906 4.402671186764862 M 2.4993667320366035 4.312594846642017 L 2.8973128578742395 4.857402960504885 Q 2.9216044957269798 4.890249822309802 2.943185258101342 4.89742761412493 Q 2.964766020475704 4.904605405940058 2.980482775642497 4.901445721299609 L 2.985640107114401 4.920769332041107 Q 2.965800763225713 4.923994302438861 2.937652594363744 4.930989342804583 Q 2.9095044255017752 4.937984383170306 2.8814851899266043 4.945462513804566 Q 2.8438041489806842 4.955519310174778 2.8110829440069365 4.964769863945552 Q 2.7783617390331883 4.974020417716326 2.7585876809018064 4.981367976835974 L 2.753430349429903 4.962044366094477 Q 2.802189823673531 4.946960809766972 2.8117194193018538 4.9283748794119795 Q 2.8212490149301765 4.909788949056987 2.788774208935325 4.865671073138072 L 2.4809049419625953 4.4334425289005654 L 2.4930115650990556 4.41675631674107 L 2.44145184291305 4.898338703304471 Q 2.436307617263659 4.941111789964989 2.440500406426302 4.968455354455333 Q 2.444693195588945 4.995798918945678 2.457031595331604 5.009065941663317 Q 2.4693699950742634 5.022332964380956 2.4909817620994645 5.023809963381779 Q 2.5125935291246653 5.0252869623826015 2.5428029923475814 5.018259279138226 L 2.5479603238194852 5.037582889879723 Q 2.5203915356341984 5.042870792866238 2.4907940959666175 5.050252633092354 Q 2.461196656299036 5.05763447331847 2.4360759623350896 5.064339004231944 Q 2.411921448908218 5.070785668571824 2.3951422227962054 5.075781423878277 Q 2.3783629966841926 5.08077717918473 2.36438602177526 5.086577538862807 L 2.3592286903033566 5.06725392812131 Q 2.377262968176878 5.057265693964032 2.3927822278439392 5.033976155982648 Q 2.4083014875110007 5.010686618001264 2.4131225608294904 4.962824762081778 L 2.4839078434434056 4.316720711819539 Q 2.487772565591705 4.315689245525159 2.4916372877400046 4.314657779230778 Q 2.495502009888304 4.313626312936398 2.4993667320366035 4.312594846642017 M 2.726834051337689 4.691761852920224 L 2.7319913828095927 4.711085463661721 L 2.4440695827612817 4.787929702593085 L 2.448574056660127 4.7660274261156355 L 2.726834051337689 4.691761852920224 M 3.182851540640148 4.201838125679125 Q 3.2076415295491634 4.253165082046038 3.2224591892238195 4.281545303358882 Q 3.2372768488984756 4.309925524671728 3.249950596888988 4.331567523467426 Q 3.241876989367 4.333245874318974 3.221181436609727 4.342130923338026 Q 3.200485883852455 4.351015972357077 3.174154713166578 4.363178186395288 Q 3.1478235424807015 4.375340400433498 3.1226103007566044 4.387517938844944 L 3.0271601713725222 4.43361861997399 L 3.100292528969663 4.612628838319994 Q 3.1153189002340995 4.593155570319391 3.13550000422131 4.572858451266249 Q 3.15568110820852 4.5525613322131075 3.192600497875948 4.534729936682061 Q 3.247529345917731 4.5082002994285535 3.2913460314701855 4.509248186444109 Q 3.3351627170226394 4.510296073459664 3.367493625492584 4.533549295978447 Q 3.399824533962529 4.55680251849723 3.4189606657519445 4.596423326920812 Q 3.444185566747083 4.648650756206441 3.4385127201520524 4.703585433883745 Q 3.4328398735570222 4.758520111561049 3.403736491884334 4.809779190515063 Q 3.374633110211646 4.861038269469077 3.3302340984762315 4.902471683001135 Q 3.285835086740817 4.943905096533193 3.232707184536469 4.969564909614454 L 3.224878766986254 4.953356397077535 Q 3.264499575409835 4.934220265288119 3.296013212747196 4.902897100349542 Q 3.3275268500845576 4.871573935410966 3.345297698407095 4.831340902342387 Q 3.363068546729632 4.791107869273808 3.362811697486818 4.744589764965201 Q 3.3625548482440037 4.698071660656593 3.3377648593349885 4.646744704289682 Q 3.310365397909235 4.590014910410463 3.2656606489935385 4.572182764594983 Q 3.220955900077842 4.554350618779502 3.166027052036059 4.5808802560330095 Q 3.1426147561493973 4.592187970272209 3.1288135844593907 4.603851059913593 Q 3.1150124127693837 4.6155141495549765 3.0995817781652955 4.631851086713303 L 3.0879675764613794 4.630797370062227 L 2.97547276025234 4.354193110647998 Q 2.9862477865304817 4.35121002353808 2.999739555938012 4.345804271208013 Q 3.0132313253455427 4.340398518877946 3.0258379462075915 4.334309749672223 L 3.1275913860226976 4.285164683940316 Q 3.164510775690126 4.26733328840927 3.1694144888056055 4.2521938168966615 Q 3.1743182019210856 4.2370543453840535 3.1657425551845106 4.210101455315463 L 3.182851540640148 4.201838125679125 M 3.7384634237742023 3.8599265506827685 Q 3.790866277719721 3.8150384576249805 3.8427674169830777 3.8133736023262697 Q 3.8946685562464345 3.811708747027559 3.934352232717812 3.8580359077620026 Q 3.9603743156498634 3.888414373817376 3.9694188737014486 3.9274104757975934 Q 3.978463431753034 3.9664065777778106 3.9768225245937954 4.01060564364684 Q 3.975181617434557 4.054804709515868 3.9692017595231786 4.100087060375333 Q 3.9632219016118 4.1453694112348 3.958110414929889 4.188591196296278 Q 3.9529989282479785 4.2318129813577565 3.955807334116561 4.268908976511915 L 4.10997804934758 4.136846905631756 Q 4.141115977054338 4.110174270626403 4.1419887063766 4.09428438882917 Q 4.142861435698864 4.078394507031936 4.127683824251966 4.054527372499969 L 4.1405946723254985 4.043467987253847 Q 4.175073932210466 4.083719454777217 4.194374127950937 4.104713559768369 Q 4.213674323691408 4.125707664759521 4.230155944680106 4.141874178594758 Q 4.222019685671044 4.146210223951701 4.203142053964519 4.161064012059548 Q 4.184264422257994 4.175917800167394 4.160395835028429 4.195705183614041 Q 4.136527247798864 4.215492567060688 4.113743398257334 4.235009129259726 L 3.9360293718334014 4.387238314412225 L 3.9249699865872794 4.374327466338691 Q 3.9262856177098673 4.32974866964397 3.9337873043192113 4.273945670638405 Q 3.9412889909285553 4.2181426716328385 3.9423381588963298 4.158649821250835 Q 3.9433873268641038 4.099156970868832 3.9293590767774718 4.042045604228671 Q 3.9153308266908393 3.98493423758851 3.8749965981461605 3.937847615202682 Q 3.8379151299679877 3.8945583010737748 3.8012003183371204 3.8924316589059584 Q 3.7644855067062535 3.8903050167381417 3.7287908090911897 3.9208809641833016 Q 3.6984123430358165 3.946903047115353 3.6878786206113294 3.986869166415128 Q 3.677344898186842 4.026835285714903 3.6881748426960095 4.0794443372358 L 3.670168487614149 4.083018015546161 Q 3.660742746039273 4.048956961602343 3.661568284060487 4.010723226668707 Q 3.662393822081701 3.9724894917350713 3.679923158340575 3.9337729271880546 Q 3.6974524945994487 3.8950563626410375 3.7384634237742023 3.8599265506827685 M 4.153546813528991 3.4250865819289937 Q 4.197355174540761 3.3692132653506626 4.256558533187764 3.3463777157642323 Q 4.315761891834768 3.323542166177802 4.381319425207816 3.3355509054139447 Q 4.446876958580864 3.3475596446500875 4.50983280824659 3.396921178184476 Q 4.572788657912315 3.446282711718865 4.6030152501707295 3.5106457688280757 Q 4.633241842429144 3.575008825937287 4.6271038657804695 3.6419925944387703 Q 4.620965889131795 3.7089763629402537 4.574072432274126 3.768784420122693 Q 4.531498109600715 3.8230838404593817 4.471986241369122 3.8463128641062223 Q 4.412474373137529 3.8695418877530634 4.34621485611948 3.8576181129927414 Q 4.2799553391014316 3.8456943382324194 4.216999489435706 3.796332804698031 Q 4.154830587890802 3.747588290332822 4.124688960108209 3.6839272168686117 Q 4.094547332325615 3.6202661434044012 4.100600344498469 3.5525803912579175 Q 4.106653356671322 3.4848946391114333 4.153546813528991 3.4250865819289937 M 4.162158707181161 3.443275460061625 Q 4.12266948035365 3.4936401397942056 4.150575657048553 3.568255790312531 Q 4.178481833743456 3.6428714408308567 4.274489504483688 3.718147779470799 Q 4.3453148353576285 3.773679504696986 4.401160910495181 3.7907811388800354 Q 4.4570069856327335 3.8078827730630844 4.498584869159158 3.795371594003415 Q 4.540162752685582 3.782860414943746 4.565460538621956 3.7505955419900614 Q 4.605566784618647 3.6994439141366593 4.576958624278744 3.624913228094155 Q 4.5483504639388395 3.5503825420516506 4.452342793198608 3.475106203411708 Q 4.381517462324667 3.419574478185521 4.325671387187114 3.402472844002472 Q 4.269825312049562 3.3853712098194224 4.228949412168139 3.397797424403271 Q 4.188073512286715 3.4102236389871194 4.162158707181161 3.443275460061625 M 4.474670209066584 2.9181048164335346 Q 4.505760125724045 2.8565059764912744 4.553022501416082 2.834993936979766 Q 4.60028487710812 2.8134818974682574 4.654741822564321 2.8409671861074615 Q 4.690451294994617 2.858990326198743 4.713807749484286 2.8915014940287667 Q 4.737164203973956 2.9240126618587907 4.75266079525511 2.9654385675056782 Q 4.768157386536265 3.006864473152566 4.780066190186776 3.0509601690379196 Q 4.791974993837288 3.095055864923273 4.8038922176816055 3.1369155086848295 Q 4.815809441525924 3.178775152446386 4.832678818798441 3.2119327173515093 L 4.924146254761693 3.0307071447677587 Q 4.9426199733552565 2.9941049355267055 4.937309863556649 2.979103177832131 Q 4.931999753758041 2.964101420137556 4.908805437065962 2.9479142748306297 L 4.916465271604757 2.932737749047754 Q 4.963780322574899 2.956618409668702 4.989673900183766 2.968567160172982 Q 5.015567477792634 2.980515910677263 5.037001581444619 2.989093742608235 Q 5.031160901302565 2.996227216900487 5.0194542804370395 3.0172023218563826 Q 5.007747659571513 3.038177426812278 4.993333357595391 3.0656269786946164 Q 4.9789190556192695 3.0930765305769543 4.965401700550808 3.119858634899676 L 4.859966331016813 3.3287590486169063 L 4.844789805233938 3.3210992140781115 Q 4.828846845547404 3.2794480191800828 4.814293512239847 3.225056379292696 Q 4.799740178932291 3.1706647394053094 4.777811241693727 3.1153508920288417 Q 4.755882304455163 3.0600370446523746 4.720953952200874 3.012724147797497 Q 4.686025599946585 2.965411250942619 4.630675917679627 2.937475383801133 Q 4.579789919466455 2.9117924091710576 4.545084800481668 2.9239601828479365 Q 4.510379681496881 2.9361279565248157 4.489202491889625 2.978086586630413 Q 4.471179351798344 3.013796059060709 4.476838997773553 3.054737705430088 Q 4.482498643748762 3.095679351799467 4.512742232795027 3.1400676984864146 L 4.497498345461699 3.1502962809379946 Q 4.475689445051692 3.1224867167036088 4.461736197753298 3.0868804407142574 Q 4.447782950454904 3.051274164724906 4.449060960199129 3.0087933844696697 Q 4.450338969943354 2.9663126042144334 4.474670209066584 2.9181048164335346 M 4.700519938855826 2.32514288434854 L 4.72658364238089 2.328704254668738 L 5.028205792967688 2.711312511604464 L 5.012582348735955 2.7077197424304242 L 5.09962893165817 2.4143617829311705 Q 5.111292035905919 2.375055651102839 5.103396270801026 2.361238745030626 Q 5.095500505696134 2.3474218389584127 5.069795157544859 2.3356220475864546 L 5.074631078818315 2.3193243831698296 Q 5.121606699783881 2.3332632150756747 5.146817005437159 2.339700643822336 Q 5.172027311090436 2.346138072568997 5.193687338132357 2.3504789513444555 Q 5.189778704147214 2.356620822425012 5.184890138738574 2.3713382246497745 Q 5.180001573329933 2.386055626874537 5.1730691020852735 2.405903569902518 Q 5.166136630840614 2.4257515129304985 5.159593913823585 2.44780129420005 Q 5.1530511968065555 2.4698510754696024 5.146508479789526 2.491900856739154 L 5.063444420268981 2.771837210248246 L 5.043312011283738 2.765863425145741 L 4.700519938855826 2.32514288434854 M 4.70507139417202 2.3098039060740696 L 5.347391109415484 2.500396097439705 L 5.324633832834513 2.577090988812059 L 4.783934848659418 2.4166521889162107 L 4.700519938855826 2.32514288434854 L 4.70507139417202 2.3098039060740696" fill="#225777" fill-rule="nonzero"></path></g><g clip-path="url(#SvgjsClipPath1002)"><g clip-path="url(#SvgjsClipPath1001b129f5d8-904c-4adb-b887-acef00f0c61e)"><path d=" M 0.6325466424843261 0.008188306051576161 C 0.5674048112299795 0.025178331159995432 0.5114493947041003 0.0668878804863748 0.47655941220178727 0.12446225198396986 C 0.4411589973682959 0.18304394108228045 0.4304122879185135 0.253265590500722 0.44667209511353445 0.3197533513140858 L 0.44667209511353445 0.322209843129557 C 0.4632682390385528 0.38775097956315485 0.5050508253494768 0.44409862236978864 0.5629460410459257 0.47901590401725963 C 0.621417194960922 0.5147201938969399 0.6917639740870949 0.5254860531762077 0.7582371403760442 0.5089032211055149 L 0.7582371403760442 0.5089032211055149 C 0.8243955926678589 0.49247416248598136 0.8813602437793178 0.45052345042715825 0.9166808624740618 0.39221985987054186 C 0.9520574059613963 0.33378026021704416 0.9628060170363834 0.26369342635823106 0.9465681795623145 0.19733817584300656 L 0.9465681795623145 0.19324402281721784 C 0.9296616852089954 0.12828408054663698 0.8880976006414961 0.07247364897190182 0.8307036489325015 0.03766620783725458 C 0.7722324950175101 0.001961917957570535 0.7018857158913372 -0.00880394132169596 0.635412549602388 0.007778890748996793 Z" fill="#3a868f" transform="matrix(1,0,0,1,0,0)" fill-rule="evenodd"></path></g><g clip-path="url(#SvgjsClipPath1001b129f5d8-904c-4adb-b887-acef00f0c61e)"><path d=" M 1.3584399739566388 0.7860773809513987 C 1.3289513970655873 0.7340257097044304 1.3135683695994398 0.6751750449944941 1.3138137059755437 0.6153511997760163 C 1.3141775101065984 0.524171797656159 1.350692606935903 0.43685948951190273 1.4153487010151025 0.3725679253467521 C 1.4475295241208488 0.3407600884862225 1.4856441012527501 0.31558221089179206 1.5275284939217026 0.29846375557998106 L 1.5275284939217026 0.2984637555799823 C 1.502314878738516 0.27268172097377735 1.4728059860119436 0.2514851923955361 1.4403230344724078 0.2358232142854186 C 1.3518982579872703 0.1924433838825446 1.2455623671388025 0.2113254579584406 1.1774784102167795 0.2824965587794093 L 0.9318292286694673 0.519957434275143 C 0.8945548465965629 0.5565537062136062 0.848201940203657 0.5825565561413326 0.7975410094236037 0.5952898499496534 C 0.7468264475127978 0.6076999534831367 0.693741671476093 0.606570490163207 0.6436008556539604 0.5920145275290234 L 0.316068613590874 0.49743959263330506 C 0.2226527854597101 0.4665728725399454 0.12000083528797713 0.49968640485340415 0.06223112599197934 0.5793226531490766 C 0.04077968035978105 0.6082987473989857 0.024694706136550046 0.6408846865581146 0.014738950892832357 0.6755352492551087 C 0.004893357098299362 0.7103834485521378 0.0012895735133191377 0.7466984985238809 0.004094153025786212 0.7828020585307662 C 0.010706456609146302 0.881207723652145 0.08026125879736525 0.9640110595905004 0.1760485801089118 0.9875097098201939 L 0.5035808221719882 1.0820846447159098 C 0.5538519168380808 1.0963740015252117 0.5995570329381975 1.1234585147697225 0.6362313802075392 1.1606923828110502 C 0.6723264826262231 1.1984079706196948 0.6977581481420971 1.2450326907321265 0.7099261346717309 1.2957994326620723 L 0.7918091951875 1.627835243053522 C 0.8118037362668266 1.7240598885759606 0.8917943821019496 1.796266765561705 0.9895567863330872 1.8063403149779023 C 1.025412290734154 1.8107293054831874 1.06176860375702 1.8085090726268296 1.0968235956087449 1.7997896701366412 C 1.131845223025213 1.7910873529782045 1.1649983926000589 1.7761060043837122 1.1946738529250955 1.7555728174581229 C 1.2509439273482443 1.7176888275136424 1.287179286093902 1.6564946739473156 1.2933429408465926 1.5889407893085292 C 1.2899294779885906 1.5814996151984329 1.2861022855086248 1.5742552865756365 1.2818793123743852 1.5672417782718513 C 1.259092974779654 1.52787299051641 1.226146303989888 1.495350525788314 1.1864855468735132 1.4730762586787147 L 0.8650945343491185 1.2876111266104937 C 0.7473274760463109 1.2251793882768167 0.6835580115188606 1.0936652198747432 0.7074696428562572 0.9625353763628823 C 0.7147176295294219 0.9160773690968159 0.7305446359101588 0.8713730177407033 0.754142987350248 0.8307036489324926 C 0.7776571081771244 0.7899509382394527 0.8083046060609553 0.7537563819151122 0.8446237692201676 0.7238462549594119 C 0.9464688332612493 0.6380558491107535 1.0920413248427192 0.6277996053856946 1.2049092354895636 0.6984625061995234 Z" fill="#3a868f" transform="matrix(1,0,0,1,0,0)" fill-rule="evenodd"></path></g><g clip-path="url(#SvgjsClipPath1001b129f5d8-904c-4adb-b887-acef00f0c61e)"><path d=" M 2.246461765250172 1.290477033728548 C 2.22562666618444 1.2193688314120983 2.22562666618444 1.1437762950730452 2.246461765250172 1.0726680927565955 C 2.2742699354813802 0.9732029068329774 2.340574268162586 0.8889227328470933 2.4306986514106566 0.8384825396814931 C 2.4448035908612598 0.8304048463117174 2.459439582228662 0.8232920280770918 2.4745060887865953 0.8171929439473946 C 2.4604948143673404 0.7996544850853957 2.4447176255139853 0.7836029103389394 2.4274233289900264 0.7692913535456682 C 2.344914938048588 0.7000285969034032 2.227138570027656 0.6919232007896016 2.1359196335538795 0.7492300037193029 L 1.8153474516346362 0.9342857204849458 C 1.766986495229297 0.9629238679888482 1.7118789033027333 0.9781844319069734 1.6556754836288843 0.9785025731634616 C 1.5994720639550304 0.9781844319069734 1.5443644720284715 0.9629238679888482 1.4960035156231273 0.9342857204849445 L 1.1750219184013109 0.7492300037193029 C 1.0840064436905763 0.6911194497471872 0.9657149631766542 0.6992602960185097 0.883518222965164 0.769291353545667 C 0.8530654087751987 0.7942008724561173 0.8273999937373894 0.8244444426087822 0.8077763919880717 0.8585438895078573 C 0.7874049818827643 0.8925396419666827 0.7735225449286514 0.9300222217427832 0.7668348617301897 0.9690860212041473 C 0.7478944701780257 1.0752389659406454 0.7996871036171502 1.1814717795761638 0.8949818514373714 1.2319306454597718 L 1.216372863961771 1.417805192830571 C 1.2652523377994265 1.4454741340837822 1.3059346402847625 1.4855914045901546 1.3342844711044797 1.534079138762966 C 1.3616319604046365 1.5829666880601472 1.375744356871334 1.638146158244927 1.3752260013623618 1.6941605220712985 L 1.3752260013623618 2.062634294392267 C 1.3705197555883086 2.170663866818139 1.4370080923819906 2.269066605272784 1.5389921223939098 2.305008153518948 C 1.5758036104644384 2.3186726354477045 1.6147722213142421 2.3256065519690234 1.654037822418562 2.325478918647889 C 1.693476412401505 2.3256434473236074 1.7326101109034286 2.318566076317941 1.7694929377457969 2.3045987382163697 C 1.8532757339672983 2.2742672139730997 1.9140645542594905 2.2009446163010726 1.9283460751463974 2.1129923766094656 C 1.9141481672654297 2.065332772861297 1.8882509509823777 2.0219830847353193 1.8530136594718833 1.986892463415181 L 1.5549593191944766 1.6835157242042487 C 1.4450582488377863 1.5799209294133734 1.415060711651032 1.4170061280068451 1.480855149427707 1.2810604817692364 C 1.5030452417978832 1.2325508050764769 1.533996711459664 1.1885525275752007 1.5721547619027927 1.1512758308517372 C 1.609847396584434 1.1135785731963872 1.6542899446271138 1.083302087342311 1.7031676587280213 1.062023294889547 C 1.840343710913892 0.9990732811534347 2.0024901239002126 1.0321981867686183 2.103985239952721 1.1439063554053184 Z" fill="#173054" transform="matrix(1,0,0,1,0,0)" fill-rule="evenodd"></path></g><g clip-path="url(#SvgjsClipPath1001b129f5d8-904c-4adb-b887-acef00f0c61e)"><path d=" M 1.6585413907469362 0.3328546409966069 C 1.5836730192294282 0.3329507439506822 1.5118146983897938 0.3623406502245623 1.45833730778588 0.41473770151237976 C 1.4056496972850305 0.46768949674652033 1.37618959370773 0.539424848957249 1.376454247270106 0.6141229538682806 C 1.3759713845984807 0.6891043718411876 1.4054480108374643 0.7611747229955116 1.45833730778588 0.8143270368293403 C 1.5112140273722408 0.8668760673829992 1.5827656046300835 0.8963211609047446 1.6573131448392018 0.8962100973451094 C 1.7322857736521302 0.8966475168585875 1.8043393387663884 0.8671777560756613 1.8575172278002576 0.8143270368293378 C 1.9100662583539203 0.7614503172429771 1.9395113518756657 0.6898987399851345 1.9394002883160317 0.6153511997760175 C 1.9398831509876573 0.5403697818031068 1.9104065247486686 0.468299430648784 1.8575172278002576 0.41514711681495414 C 1.8046066037945463 0.36259923433186364 1.733112049588811 0.3330304989504806 1.658541390746941 0.3328546409966069 Z" fill="#173054" transform="matrix(1,0,0,1,0,0)" fill-rule="evenodd"></path></g><g clip-path="url(#SvgjsClipPath1001b129f5d8-904c-4adb-b887-acef00f0c61e)"><path d=" M 2.497842761033588 2.877370746524185 L 2.6112507998479275 2.4679554439453324 C 2.6273425523557816 2.4059838745778017 2.6597125461749145 2.34944240065792 2.705006904138487 2.3041893229137904 C 2.750438192622004 2.259644544675916 2.8069954834375896 2.2281138550462276 2.86877302517003 2.2128897104387057 L 3.2781883277488806 2.106032316465625 C 3.4009225131749448 2.0796293612311336 3.492185602062931 1.9764191043432664 3.503366744167252 1.851375998261578 C 3.5084952679264365 1.8058489829815114 3.5051639798715164 1.759766164888452 3.4935407769053572 1.7154501178053982 C 3.4821939099437578 1.6713165584440814 3.46275912680941 1.6296705945847667 3.43622263454432 1.5926255270317435 C 3.3655850469463338 1.4891474228389496 3.2359182176734795 1.4435484739258604 3.116059867927655 1.4800363188225578 L 2.7066445653487996 1.5864842974930604 C 2.6454074049151304 1.603277469966443 2.5807789325039376 1.603277469966443 2.5195417720702635 1.5864842974930604 C 2.4582625556294753 1.5693378871263497 2.4026100075743253 1.5362853585859793 2.358232142854199 1.4906811166896077 L 2.0601778025767925 1.1873043774786767 C 1.9760218397149771 1.0945750795074012 1.841405530034779 1.0672207801265727 1.7277325768827634 1.1197508525531668 C 1.6858547640206993 1.138203753409968 1.6476990698223006 1.1641496254648782 1.6151433686735803 1.1963115141354128 C 1.582482810717463 1.2284244154903978 1.5558572999761213 1.2661438890406351 1.5365356305784361 1.3076724764368604 C 1.481692903878428 1.420753935309506 1.5069244612939523 1.5563735564179257 1.5987667565704256 1.6421647786437847 L 1.8968210968478323 1.9455415178547144 C 1.9420143135896468 1.990806034803315 1.9742483891273774 2.047357044518631 1.9901677858358087 2.1093076388862566 C 2.0059847199370946 2.1708065738147315 2.0049949443575437 2.2354247795080626 1.9873018787177619 2.2964104321647922 L 1.8743032552059955 2.705825734743648 C 1.836008804178627 2.825097299900867 1.8796154167007675 2.9554197236362403 1.9819794797842314 3.0276261625706256 C 2.0188093076929827 3.054893465153197 2.060492589707885 3.0749014405203496 2.1048040705578877 3.08658196614198 C 2.1486914101187757 3.099002877485635 2.1945034089591733 3.1031676046529437 2.239911120408907 3.098864425219346 C 2.365126415308754 3.0895091906584566 2.4696707232165016 2.9997338405345055 2.497842761033588 2.877370746524185 Z" fill="#225777" transform="matrix(1,0,0,1,0,0)" fill-rule="evenodd"></path></g><g clip-path="url(#SvgjsClipPath1001b129f5d8-904c-4adb-b887-acef00f0c61e)"><path d=" M 2.7086916418616953 0.8618192119284872 C 2.6249103617453464 0.8382599281132375 2.535197451327635 0.8490136924161809 2.4593577225911747 0.8917065290167437 C 2.3834789139340864 0.9342671772531402 2.327650623324521 1.0052678001391853 2.304189322913792 1.0890447048597516 C 2.2808579337108057 1.1728435141413875 2.2916010989095765 1.2624680018955488 2.3340766400020447 1.3383786241302744 C 2.3766372882384452 1.4142574327873652 2.4476379111244877 1.4700857233969307 2.531414815845054 1.493547023807662 C 2.615322506534624 1.5172202575211815 2.705205933107405 1.5064637163083727 2.7811581504181526 1.463659706719403 C 2.8555752872100078 1.4217289663598922 2.910667897259848 1.3523857345104886 2.9346888888852227 1.2704156839021838 L 2.9346888888852227 1.265912115573817 C 2.958457813252373 1.1822825140708473 2.947691661813369 1.092613745921344 2.9048015717969697 1.0169876116058736 C 2.862937445806098 0.9421771777575937 2.79341134899397 0.8867620857952827 2.711148133677169 0.8626380425336447 Z" fill="#225777" transform="matrix(1,0,0,1,0,0)" fill-rule="evenodd"></path></g></g><g transform="matrix(0.14288214954430264,-0.9897397088839063,0.9897397088839063,0.14288214954430264,-2.448061563149606,-0.3797015929971357)"><g clip-path="url(#SvgjsClipPath1003)"><path d=" M -1.3026915305039921 1.2663682585129576 L -1.329356537646849 1.2913855585129577 C -1.351150365503992 1.313638887798672 -1.3748587826468492 1.3339312135129577 -1.4002079447897062 1.3520258227986721 C -1.4143318119325634 1.3615268270843863 -1.4309040326468492 1.3667252270843862 -1.447921830503992 1.366994429941529 C -1.4704652490754206 1.3671870492272435 -1.4922567562182778 1.358904419941529 -1.508979823361135 1.3437872870843863 C -1.5170675126468491 1.3374470956558149 -1.5236420962182777 1.329387254941529 -1.528230148361135 1.3201902642272434 C -1.532818200503992 1.3109955942272435 -1.535303685503992 1.3008958456558148 -1.535505587646849 1.290619722798672 C -1.5358931469325634 1.2772036735129577 -1.5312865290754205 1.2641218070843863 -1.5225792090754207 1.253906022798672 C -1.5188080483611348 1.2492065763701006 -1.5140227355039921 1.2454191706558149 -1.508580660503992 1.242826932798672 C -1.5031409062182777 1.2402346949415293 -1.4971836326468493 1.238904925655815 -1.491156737646849 1.2389374156558148 C -1.482191818361135 1.2395477635129577 -1.4734705740754206 1.2421330392272434 -1.4656195976468491 1.2465052649415291 C -1.4577686212182777 1.2508798113701005 -1.4509805319325635 1.2569322342272433 -1.4457403590754205 1.2642332013701005 C -1.4489707933611349 1.263611249941529 -1.4522453212182778 1.2632445770843863 -1.4555337733611349 1.2631424656558148 C -1.469650678361135 1.2628709420843864 -1.4833800240754207 1.2677560456558148 -1.4941504590754207 1.2768810942272435 C -1.4991817676468493 1.2807404420843862 -1.503261583361135 1.2856998085129576 -1.5060766097897063 1.2913809170843864 C -1.5088916362182778 1.2970597049415291 -1.5103699312182777 1.3033093885129579 -1.5103954590754207 1.309649579941529 C -1.510439552646849 1.3134880413701007 -1.5096876412182778 1.3172940127986719 -1.508190780503992 1.320828460655815 C -1.5066939197897062 1.3243629085129578 -1.5044822790754206 1.3275492492272434 -1.501692780503992 1.3301879013701006 C -1.499051807646849 1.3329193820843863 -1.4958840326468492 1.3350846085129577 -1.4923820747897063 1.3365582620843863 C -1.4888801169325634 1.338029594941529 -1.4851159183611349 1.338776864941529 -1.4813169090754206 1.3387513370843864 C -1.460648627646849 1.3387513370843864 -1.4252879040754205 1.312914824941529 -1.3752370590754206 1.2612394799415292 L -1.353213480503992 1.2386589299415292 C -1.3749516112182776 1.2249783192272434 -1.3986600283611348 1.2147091585129577 -1.4235079162182778 1.2082111585129578 C -1.449017207646849 1.200200052798672 -1.475522085503992 1.1957999785129578 -1.5022497519325635 1.1951455370843864 C -1.5383744546468492 1.194026952798672 -1.5735372212897063 1.2068883513701005 -1.6004166624325635 1.2310469870843863 C -1.6131098092182778 1.242193377798672 -1.6232165199325634 1.2559760999415293 -1.6300308332897062 1.2714320570843862 C -1.6368451466468492 1.2868880142272434 -1.6402027560754207 1.3036458920843863 -1.6398688052897064 1.3205337299415292 C -1.6399219496468491 1.3283684613701006 -1.6389149917182777 1.3361753442272435 -1.6368750838611348 1.343740872798672 C -1.6753061124325634 1.3368413892272435 -1.6945216267182777 1.3199767585129578 -1.6945216267182777 1.2931493013701005 C -1.6938251803611348 1.2750384470843863 -1.6885922017182777 1.2573940563701005 -1.6793028465754207 1.2418313463701005 C -1.670013259361135 1.2262686363701005 -1.6569645791468492 1.2132888813701006 -1.6413540624325635 1.2040802870843863 C -1.6045623864325635 1.178554750655815 -1.5606175727897063 1.1653661313701005 -1.5158491376468493 1.1664150942272435 C -1.477422750503992 1.1690839156558148 -1.4397691612182777 1.1785106570843862 -1.4046173019325634 1.1942636656558148 L -1.424204130503992 1.1752106013701007 C -1.4431272347897064 1.1565868692272434 -1.4641552269325635 1.140230474941529 -1.4868634162182777 1.1264760655129578 C -1.5020873019325633 1.1157429940129577 -1.5197618619325635 1.109007120798672 -1.5382677017897064 1.106888772798672 C -1.5476215727897062 1.1066140002272433 -1.5567549759325634 1.1097578718701007 -1.563958241003992 1.1157309262986719 C -1.5672371782182777 1.1182936910843864 -1.5698853452897064 1.1215735565843863 -1.5716996797182778 1.1253189573701006 C -1.573514014146849 1.1290641260843863 -1.5744457809325634 1.1331755035129576 -1.5744244303611348 1.1373365442272434 C -1.5743617710754205 1.1400773077986721 -1.5740904795754207 1.142806467798672 -1.5736124124325634 1.1455054585129576 C -1.5986297124325635 1.1360833585129577 -1.611138130361135 1.1239388285843863 -1.611138130361135 1.1090707083701006 C -1.6109900687897063 1.1037082338701005 -1.609478355503992 1.0984717741558148 -1.6067457144325634 1.0938551772272433 C -1.6040133054325634 1.0892388123701005 -1.600150012361135 1.0853936208701005 -1.5955201873611349 1.0826837227986719 C -1.5842215577897063 1.075168785798672 -1.5708605094325634 1.071364206798672 -1.557297791003992 1.0717998048701005 C -1.5226720376468492 1.0717998048701005 -1.471818225503992 1.1046147048701005 -1.4047333376468492 1.170244272798672 L -1.385703480503992 1.1890188513701005 C -1.371554085503992 1.2029570613701006 -1.3562698612182778 1.2156954620843863 -1.3400086162182776 1.227101772798672 C -1.328521080503992 1.2133236920843862 -1.3143507990754206 1.202019492798672 -1.298363398361135 1.1938830685129576 C -1.2823736769325633 1.1857443235129577 -1.2648963776468491 1.180940444941529 -1.2469943876468492 1.1797592013701006 C -1.2300787012182777 1.179179022798672 -1.213490235503992 1.1845213070843863 -1.2000927519325635 1.1948670513701005 C -1.194232948361135 1.1991232413701005 -1.1894615597897062 1.2047068799415293 -1.186175428361135 1.2111607863701006 C -1.1828869762182777 1.217614692798672 -1.1811766097897063 1.2247555306558149 -1.1811789305039921 1.2319984799415291 C -1.1811278747897063 1.2390464892272435 -1.182738450503992 1.2460086320843864 -1.1858783769325636 1.2523186542272433 C -1.1890183033611348 1.2586286763701007 -1.1936040347897063 1.2641102035129577 -1.1992572947897062 1.2683176585129576 C -1.2121952769325635 1.2783106542272433 -1.2282221297897062 1.2834579985129577 -1.244557637646849 1.2828685370843864 C -1.2649961683611348 1.282221057798672 -1.2849612733611349 1.2765538735129578 -1.3026915305039921 1.2663682585129576 L -1.3026915305039921 1.2663682585129576 Z M -1.2887672447897063 1.253581122798672 C -1.276049730503992 1.2588352199415291 -1.2625246076468493 1.2618730349415292 -1.2487813376468493 1.2625622870843862 C -1.2387813797897063 1.2631958420843863 -1.2287907047897062 1.2611791413701006 -1.219818823361135 1.2567140870843863 C -1.2167508390754205 1.254961947798672 -1.2142259019325634 1.2523975585129579 -1.2125224976468492 1.2493017256558148 C -1.210819093361135 1.246205892798672 -1.2100045226468492 1.2426992935129577 -1.2101646519325633 1.2391694870843863 C -1.210013805503992 1.236816282798672 -1.2104570619325634 1.234460757798672 -1.2114549690754206 1.2323233799415292 C -1.2124505555039922 1.2301860020843862 -1.2139729440754206 1.2283340720843863 -1.2158736090754205 1.226939322798672 C -1.2211230647897062 1.223836527798672 -1.2271963740754206 1.2224116092272435 -1.2332789662182777 1.222854865655815 C -1.2551029633611348 1.225444782798672 -1.275042540503992 1.236475137798672 -1.2888368662182776 1.253581122798672 L -1.2887672447897063 1.253581122798672 Z" fill="#173054" transform="matrix(1,0,0,1,0,0)" fill-rule="nonzero"></path></g></g><g transform="matrix(-0.14288214954430264,-0.9897397088839063,-0.9897397088839063,0.14288214954430264,6.869107393449848,5.9486696459439266)"><g clip-path="url(#SvgjsClipPath1004)"><path d=" M 5.0912837562684645 1.2663682585129574 L 5.064618749125607 1.2913855585129574 C 5.042824921268465 1.3136388877986718 5.019116504125607 1.3339312135129575 4.99376734198275 1.3520258227986717 C 4.979643474839893 1.361526827084386 4.963071254125607 1.3667252270843862 4.946053456268464 1.3669944299415289 C 4.923510037697036 1.3671870492272433 4.901718530554179 1.358904419941529 4.884995463411322 1.343787287084386 C 4.876907774125607 1.3374470956558147 4.870333190554178 1.3293872549415289 4.865745138411322 1.3201902642272432 C 4.861157086268465 1.310995594227243 4.8586716012684645 1.3008958456558146 4.8584696991256076 1.2906197227986718 C 4.858082139839893 1.2772036735129575 4.862688757697036 1.264121807084386 4.871396077697036 1.2539060227986718 C 4.875167238411321 1.2492065763701004 4.879952551268464 1.2454191706558146 4.885394626268464 1.2428269327986716 C 4.890834380554178 1.2402346949415288 4.896791654125607 1.2389049256558147 4.902818549125607 1.2389374156558146 C 4.911783468411322 1.2395477635129575 4.920504712697036 1.2421330392272432 4.928355689125607 1.246505264941529 C 4.936206665554178 1.2508798113701003 4.942994754839893 1.2569322342272433 4.948234927697036 1.2642332013701003 C 4.9450044934113215 1.2636112499415288 4.941729965554178 1.263244577084386 4.9384415134113215 1.2631424656558146 C 4.924324608411322 1.262870942084386 4.9105952626970355 1.2677560456558146 4.899824827697036 1.2768810942272433 C 4.894793519125607 1.2807404420843862 4.890713703411322 1.2856998085129576 4.88789867698275 1.291380917084386 C 4.885083650554178 1.297059704941529 4.883605355554178 1.3033093885129574 4.8835798276970355 1.3096495799415289 C 4.883535734125608 1.3134880413701004 4.884287645554179 1.3172940127986719 4.885784506268465 1.3208284606558145 C 4.88728136698275 1.3243629085129576 4.889493007697036 1.3275492492272432 4.892282506268464 1.3301879013701003 C 4.894923479125607 1.332919382084386 4.898091254125608 1.3350846085129575 4.90159321198275 1.336558262084386 C 4.905095169839893 1.3380295949415288 4.9088593684113215 1.3387768649415288 4.912658377697036 1.338751337084386 C 4.9333266591256075 1.338751337084386 4.968687382697036 1.312914824941529 5.018738227697036 1.261239479941529 L 5.040761806268464 1.238658929941529 C 5.019023675554179 1.2249783192272432 4.995315258411321 1.2147091585129575 4.970467370554179 1.2082111585129574 C 4.944958079125607 1.2002000527986718 4.9184532012684645 1.1957999785129574 4.891725534839893 1.195145537084386 C 4.8556008321256074 1.1940269527986718 4.82043806548275 1.2068883513701003 4.793558624339893 1.231046987084386 C 4.780865477554179 1.2421933777986718 4.770758766839893 1.2559760999415288 4.76394445348275 1.271432057084386 C 4.757130140125607 1.2868880142272432 4.753772530697036 1.303645892084386 4.75410648148275 1.320533729941529 C 4.754053337125607 1.3283684613701003 4.755060295054179 1.3361753442272433 4.757100202911322 1.343740872798672 C 4.718669174339893 1.3368413892272433 4.6994536600541785 1.3199767585129574 4.6994536600541785 1.2931493013701003 C 4.700150106411321 1.275038447084386 4.705383085054178 1.2573940563701003 4.7146724401970355 1.2418313463701003 C 4.723962027411321 1.2262686363701003 4.737010707625608 1.2132888813701004 4.752621224339893 1.204080287084386 C 4.789412900339893 1.1785547506558145 4.83335771398275 1.1653661313701003 4.878126149125607 1.166415094227243 C 4.916552536268465 1.1690839156558146 4.954206125554179 1.178510657084386 4.989357984839893 1.1942636656558148 L 4.9697711562684646 1.1752106013701002 C 4.95084805198275 1.1565868692272432 4.929820059839893 1.1402304749415288 4.9071118705541785 1.1264760655129575 C 4.891887984839893 1.1157429940129575 4.874213424839893 1.1090071207986718 4.85570758498275 1.1068887727986718 C 4.84635371398275 1.106614000227243 4.837220310839893 1.1097578718701002 4.830017045768464 1.1157309262986717 C 4.826738108554179 1.1182936910843861 4.82408994148275 1.121573556584386 4.822275607054179 1.1253189573701003 C 4.820461272625607 1.129064126084386 4.819529505839893 1.1331755035129574 4.819550856411322 1.1373365442272432 C 4.819613515697036 1.1400773077986717 4.8198848071970355 1.1428064677986718 4.820362874339893 1.1455054585129574 C 4.795345574339893 1.1360833585129575 4.782837156411322 1.123938828584386 4.782837156411322 1.1090707083701004 C 4.78298521798275 1.1037082338701003 4.784496931268464 1.0984717741558145 4.787229572339893 1.0938551772272431 C 4.789961981339893 1.0892388123701005 4.793825274411321 1.0853936208701003 4.7984550994113215 1.0826837227986719 C 4.80975372898275 1.0751687857986718 4.823114777339893 1.0713642067986717 4.836677495768464 1.0717998048701003 C 4.871303249125607 1.0717998048701003 4.922157061268464 1.1046147048701003 4.989241949125607 1.1702442727986717 L 5.008271806268464 1.1890188513701003 C 5.022421201268465 1.2029570613701004 5.037705425554178 1.215695462084386 5.053966670554178 1.2271017727986717 C 5.065454206268464 1.2133236920843862 5.079624487697036 1.2020194927986718 5.095611888411321 1.1938830685129576 C 5.111601609839893 1.1857443235129574 5.1290789091256075 1.180940444941529 5.146980899125607 1.1797592013701004 C 5.163896585554179 1.1791790227986718 5.180485051268464 1.184521307084386 5.193882534839893 1.1948670513701003 C 5.199742338411322 1.1991232413701003 5.20451372698275 1.2047068799415288 5.207799858411321 1.2111607863701004 C 5.211088310554179 1.2176146927986717 5.21279867698275 1.2247555306558147 5.2127963562684645 1.231998479941529 C 5.21284741198275 1.2390464892272433 5.211236836268465 1.246008632084386 5.208096909839893 1.2523186542272433 C 5.204956983411321 1.2586286763701002 5.20037125198275 1.2641102035129574 5.19471799198275 1.2683176585129576 C 5.181780009839893 1.2783106542272433 5.16575315698275 1.2834579985129575 5.149417649125607 1.282868537084386 C 5.128979118411322 1.282221057798672 5.109014013411322 1.2765538735129576 5.0912837562684645 1.2663682585129574 L 5.0912837562684645 1.2663682585129574 Z M 5.10520804198275 1.2535811227986717 C 5.117925556268465 1.258835219941529 5.131450679125607 1.2618730349415288 5.145193949125607 1.262562287084386 C 5.15519390698275 1.263195842084386 5.16518458198275 1.2611791413701003 5.174156463411322 1.256714087084386 C 5.177224447697036 1.2549619477986718 5.179749384839893 1.2523975585129574 5.181452789125608 1.2493017256558145 C 5.183156193411321 1.2462058927986717 5.183970764125608 1.2426992935129575 5.183810634839893 1.2391694870843861 C 5.183961481268464 1.2368162827986717 5.183518224839893 1.2344607577986717 5.182520317697036 1.232323379941529 C 5.181524731268464 1.230186002084386 5.180002342697036 1.228334072084386 5.178101677697036 1.2269393227986718 C 5.17285222198275 1.2238365277986718 5.166778912697036 1.2224116092272432 5.1606963205541785 1.2228548656558147 C 5.138872323411322 1.2254447827986719 5.118932746268465 1.2364751377986718 5.105138420554178 1.2535811227986717 L 5.10520804198275 1.2535811227986717 Z" fill="#173054" transform="matrix(1,0,0,1,0,0)" fill-rule="nonzero"></path></g></g></g><defs><clipPath id="SvgjsClipPath1002"><path d=" M 0 0 h 3.507460897193043 v 3.099683255824504 h -3.507460897193043 Z"></path></clipPath><clipPath id="SvgjsClipPath1001b129f5d8-904c-4adb-b887-acef00f0c61e"><path d=" M 0 0 L 3.5074608971930434 0 L 3.5074608971930434 3.099683255824504 L 0 3.099683255824504 Z"></path></clipPath><clipPath id="SvgjsClipPath1003"><path d=" M -1.7681571947897063 0.8986742870843862 h 0.6498 v 0.6498 h -0.6498 Z"></path></clipPath><clipPath id="SvgjsClipPath1004"><path d=" M 4.62581809198275 0.898674287084386 h 0.6498 v 0.6498 h -0.6498 Z"></path></clipPath></defs></svg>